SplineFontDB: 3.0
FontName: LindenHill
FullName: Linden Hill
FamilyName: Linden Hill
Weight: Regular
Copyright: Created by trashman with FontForge 2.0 (http://fontforge.sf.net)
UComments: "Scaling: Cut the 12-point to 640 pixels high and scale it to 120%." 
Version: 001.000
ItalicAngle: 0
UnderlinePosition: -204
UnderlineWidth: 102
Ascent: 1504
Descent: 544
LayerCount: 3
Layer: 0 0 "Back"  1
Layer: 1 0 "Fore"  0
Layer: 2 0 "backup"  1
NeedsXUIDChange: 1
XUID: [1021 658 797806517 427014]
OS2Version: 0
OS2_WeightWidthSlopeOnly: 0
OS2_UseTypoMetrics: 1
CreationTime: 1249677682
ModificationTime: 1249894154
OS2TypoAscent: 0
OS2TypoAOffset: 1
OS2TypoDescent: 0
OS2TypoDOffset: 1
OS2TypoLinegap: 0
OS2WinAscent: 0
OS2WinAOffset: 1
OS2WinDescent: 0
OS2WinDOffset: 1
HheadAscent: 0
HheadAOffset: 1
HheadDescent: 0
HheadDOffset: 1
OS2Vendor: 'PfEd'
DEI: 91125
Encoding: UnicodeBmp
UnicodeInterp: none
NameList: Adobe Glyph List
DisplaySize: -72
AntiAlias: 1
FitToEm: 1
WinInfo: 96 8 6
BeginPrivate: 4
StdHW 4 [65]
StemSnapH 4 [65]
StdVW 5 [144]
StemSnapV 9 [144 166]
EndPrivate
BeginChars: 65537 55

StartChar: i
Encoding: 105 105 0
Width: 522
VWidth: 0
Flags: HMW
LayerCount: 3
Fore
SplineSet
308 1303 m 0
 345 1303 393 1233 393 1210 c 0
 393 1178 330 1125 303 1125 c 0
 280 1125 219 1182 219 1216 c 0
 219 1244 287 1303 308 1303 c 0
38 708 m 1
 35 770 l 1
 125 784 212 802 325 832 c 1
 325 120 l 2
 325 54 345 71 487 65 c 1
 487 0 l 1
 43 0 l 1
 43 65 l 1
 136 70 181 58 181 113 c 2
 181 659 l 2
 181 713 173 724 150 724 c 0
 140 724 102 720 38 708 c 1
EndSplineSet
Layer: 2
SplineSet
314.770507812 1370.7734375 m 4
 351.693359375 1370.7734375 399.693359375 1300.62011719 399.693359375 1277.54296875 c 4
 399.693359375 1245.23535156 336.923828125 1192.61914062 310.155273438 1192.61914062 c 4
 287.078125 1192.61914062 226.154296875 1248.92675781 226.154296875 1283.08105469 c 4
 226.154296875 1310.7734375 293.5390625 1370.7734375 314.770507812 1370.7734375 c 4
EndSplineSet
EndChar

StartChar: j
Encoding: 106 106 1
Width: 501
VWidth: 0
Flags: HMW
LayerCount: 3
Fore
SplineSet
301 1303 m 0
 338 1303 386 1233 386 1210 c 0
 386 1178 323 1125 296 1125 c 0
 273 1125 212 1182 212 1216 c 0
 212 1244 280 1303 301 1303 c 0
31 -534 m 0
 -39 -534 -129 -484 -129 -454 c 0
 -129 -412 -64 -354 -18 -354 c 0
 13 -354 61 -442 93 -442 c 0
 162 -442 188 -339 188 -164 c 2
 188 636 l 2
 188 690 186 720 142 720 c 0
 128 720 99 713 52 702 c 1
 41 764 l 1
 131 779 199 796 332 827 c 1
 332 -99 l 2
 332 -326 285 -403 216 -454 c 0
 215 -455 118 -534 31 -534 c 0
EndSplineSet
Layer: 2
SplineSet
304.616210938 1296.92773438 m 4
 326.770507812 1296.92773438 378.462890625 1236.00390625 378.462890625 1208.31152344 c 4
 378.462890625 1172.31152344 319.385742188 1125.234375 299.078125 1125.234375 c 4
 279.693359375 1125.234375 216.923828125 1174.15820312 216.923828125 1212.92675781 c 4
 216.923828125 1239.69628906 288.000976562 1296.92773438 304.616210938 1296.92773438 c 4
EndSplineSet
EndChar

StartChar: l
Encoding: 108 108 2
Width: 539
VWidth: 0
Flags: HMW
LayerCount: 3
Fore
SplineSet
337 1486 m 1
 337 120 l 2
 337 60 366 69 504 65 c 1
 504 0 l 1
 55 0 l 1
 55 65 l 1
 153 66 193 59 193 121 c 2
 193 1289 l 2
 193 1367 191 1390 158 1390 c 0
 137 1390 101 1385 35 1368 c 1
 36 1440 l 1
 140 1456 237 1468 337 1486 c 1
EndSplineSet
EndChar

StartChar: .notdef
Encoding: 65536 -1 4
Width: 1024
Flags: HMW
LayerCount: 3
Fore
SplineSet
94 0 m 1
 94 1008 l 1
 851 1008 l 1
 851 0 l 1
 94 0 l 1
188 94 m 1
 757 94 l 1
 757 914 l 1
 188 914 l 1
 188 94 l 1
EndSplineSet
EndChar

StartChar: k
Encoding: 107 107 5
Width: 966
VWidth: 0
Flags: HMW
LayerCount: 3
Fore
SplineSet
297 338 m 1
 297 116 l 2
 297 59 316 67 459 65 c 1
 461 0 l 1
 41 0 l 1
 40 65 l 1
 143 66 158 59 158 111 c 2
 158 1289 l 2
 158 1359 156 1385 127 1385 c 0
 118 1385 77 1376 39 1366 c 1
 35 1431 l 1
 109 1445 188 1460 302 1485 c 1
 302 410 l 1
 675 714 l 2
 685.637391284 722.703320142 689.814226986 729.2073324 689.814226986 734.058733726 c 0
 689.814226986 746.231774113 663.516929881 748 647 748 c 0
 630 748 609 747 585 747 c 1
 585 802 l 1
 915 802 l 1
 913 747 l 1
 852 746 835 753 771 702 c 2
 480 471 l 1
 785 114 l 2
 824 69 816 65 877 65 c 2
 931 65 l 1
 930 0 l 1
 688 0 l 1
 369 393 l 1
 297 338 l 1
EndSplineSet
Layer: 2
SplineSet
297 338 m 1
 297 116 l 2
 297 59 316 67 459 65 c 1
 461 0 l 1
 41 0 l 1
 40 65 l 1
 143 66 158 59 158 111 c 2
 158 1289 l 2
 158 1359 156 1385 127 1385 c 0
 118 1385 77 1376 39 1366 c 1
 35 1431 l 1
 109 1445 188 1460 302 1485 c 1
 302 410 l 1
 675 714 l 2
 686 723 689 729 689 735 c 0
 689 747 673 749 647 749 c 0
 630 749 609 748 585 748 c 1
 585 803 l 1
 915 803 l 1
 913 748 l 1
 852 747 835 753 771 702 c 2
 480 471 l 1
 785 114 l 2
 824 69 816 65 877 65 c 2
 931 65 l 1
 930 0 l 1
 688 0 l 1
 369 393 l 1
 297 338 l 1
EndSplineSet
EndChar

StartChar: m
Encoding: 109 109 6
Width: 1417
VWidth: 0
Flags: HMW
LayerCount: 3
Fore
SplineSet
35 768 m 1
 124 782 217 801 323 825 c 1
 320 762 319 739 319 675 c 1
 352 693 474 809 609 809 c 0
 731 809 763 692 768 678 c 1
 834 728 946 809 1053 809 c 0
 1238 809 1249 650 1249 538 c 2
 1249 117 l 2
 1249 63 1259 67 1382 65 c 1
 1382 0 l 1
 985 0 l 1
 985 65 l 1
 1092 66 1105 64 1105 113 c 2
 1105 539 l 2
 1105 668 1065 695 981 695 c 0
 856 695 778 627 778 627 c 1
 778 627 786 563 786 480 c 2
 786 98 l 2
 786 60 818 66 908 65 c 1
 908 0 l 1
 517 0 l 1
 515 65 l 1
 607 67 642 61 642 98 c 2
 642 539 l 2
 642 642 607 695 514 695 c 0
 416 695 323 628 323 628 c 1
 323 110 l 2
 323 56 325 68 443 65 c 1
 443 0 l 1
 41 0 l 1
 38 65 l 1
 154 67 179 59 179 110 c 2
 179 616 l 2
 179 698 178 724 146 724 c 0
 124 724 120 719 35 704 c 1
 35 768 l 1
EndSplineSet
Layer: 2
SplineSet
33.23046875 64.615234375 m 5
 149.5390625 66.4619140625 174.461914062 59.0771484375 174.461914062 109.846679688 c 6
 174.461914062 615.694335938 l 6
 174.461914062 697.848632812 173.5390625 723.694335938 141.231445312 723.694335938 c 4
 119.077148438 723.694335938 115.384765625 719.079101562 30.4619140625 704.309570312 c 5
 29.5380859375 768.002929688 l 5
 118.154296875 781.848632812 212.30859375 801.233398438 318.462890625 825.233398438 c 5
 315.693359375 762.463867188 313.84765625 738.463867188 313.84765625 674.771484375 c 5
 347.078125 692.309570312 468.924804688 808.618164062 603.694335938 808.618164062 c 4
 725.541015625 808.618164062 758.771484375 692.309570312 763.38671875 678.463867188 c 5
 829.848632812 728.310546875 940.618164062 808.618164062 1047.6953125 808.618164062 c 4
 1232.31152344 808.618164062 1243.38867188 649.848632812 1243.38867188 538.155273438 c 6
 1243.38867188 117.231445312 l 6
 1243.38867188 62.76953125 1253.54296875 66.4619140625 1376.3125 64.615234375 c 5
 1376.3125 0 l 5
 979.387695312 0 l 5
 979.387695312 64.615234375 l 5
 1086.46484375 65.5390625 1099.38867188 63.6923828125 1099.38867188 112.616210938 c 6
 1099.38867188 539.079101562 l 6
 1099.38867188 668.309570312 1059.69628906 695.079101562 975.6953125 695.079101562 c 4
 851.080078125 695.079101562 772.618164062 626.771484375 772.618164062 626.771484375 c 5
 772.618164062 626.771484375 780.92578125 563.079101562 780.92578125 480.001953125 c 6
 780.92578125 97.8466796875 l 6
 780.92578125 60 813.233398438 65.5390625 902.772460938 64.615234375 c 5
 902.772460938 0 l 5
 512.309570312 0 l 5
 509.540039062 64.615234375 l 5
 601.848632812 66.4619140625 636.924804688 60.9228515625 636.924804688 97.8466796875 c 6
 636.924804688 539.079101562 l 6
 636.924804688 642.463867188 601.848632812 695.079101562 508.6171875 695.079101562 c 4
 410.770507812 695.079101562 318.462890625 627.694335938 318.462890625 627.694335938 c 5
 318.462890625 109.846679688 l 6
 318.462890625 56.3076171875 320.30859375 67.384765625 438.462890625 64.615234375 c 5
 438.462890625 0 l 5
 36 0 l 5
 33.23046875 64.615234375 l 5
EndSplineSet
EndChar

StartChar: n
Encoding: 110 110 7
Width: 950
VWidth: 0
Flags: HMW
LayerCount: 3
Fore
SplineSet
38 709 m 1
 38 773 l 1
 292 823 l 1
 288 774 288 754 287 678 c 1
 319 693 432 809 595 809 c 0
 788 809 791 642 791 480 c 2
 791 127 l 2
 791 65 819 65 915 65 c 1
 914 0 l 1
 532 0 l 1
 530 65 l 1
 620 68 647 54 647 127 c 2
 647 539 l 2
 647 656 607 695 514 695 c 0
 416 695 292 628 292 628 c 1
 292 135 l 2
 292 51 306 73 442 65 c 1
 439 0 l 1
 37 0 l 1
 35 65 l 1
 140 70 148 55 148 135 c 2
 148 622 l 2
 148 705 145 726 117 726 c 0
 101 726 93 722 38 709 c 1
EndSplineSet
EndChar

StartChar: a
Encoding: 97 97 8
Width: 778
VWidth: 0
Flags: HMW
LayerCount: 3
Fore
SplineSet
462 201 m 2
 462 391 l 1
 292 390 195 283 195 193 c 0
 195 137 226 88 316 88 c 0
 436 88 462 156 462 201 c 2
50 133 m 0
 50 300 230 446 462 446 c 1
 462 570 l 2
 462 649 449 714 325 714 c 0
 181 714 160 652 160 652 c 1
 168 615 179 584 179 562 c 0
 179 530 131 508 114 508 c 0
 73 508 68 558 68 582 c 0
 68 627 130 812 425 812 c 0
 472 812 606 797 606 647 c 2
 606 264 l 2
 606 175 620 111 738 78 c 0
 752 74 758 67 758 61 c 0
 758 55 752 46 738 38 c 0
 690 8 622 -32 616 -35 c 1
 544 17 523 56 479 109 c 1
 425 37 330 -22 240 -22 c 0
 154 -22 50 23 50 133 c 0
EndSplineSet
Layer: 2
SplineSet
319.385742188 93.2314453125 m 4
 380.30859375 93.2314453125 470.770507812 114.461914062 470.770507812 268.616210938 c 6
 470.770507812 413.540039062 l 5
 300.000976562 389.540039062 202.154296875 313.84765625 202.154296875 209.5390625 c 4
 202.154296875 147.692382812 242.770507812 93.2314453125 319.385742188 93.2314453125 c 4
72 590.771484375 m 4
 72 636.001953125 142.154296875 817.848632812 437.540039062 817.848632812 c 4
 484.6171875 817.848632812 614.771484375 796.618164062 614.771484375 653.541015625 c 4
 614.771484375 642.463867188 600.001953125 252.923828125 600.001953125 224.30859375 c 4
 600.001953125 104.307617188 751.38671875 102.461914062 751.38671875 60.9228515625 c 4
 751.38671875 39.6923828125 628.6171875 -21.23046875 620.309570312 -25.8466796875 c 5
 620.309570312 -25.8466796875 523.38671875 37.8466796875 485.540039062 144 c 5
 432.000976562 37.8466796875 324.923828125 -12 230.76953125 -12 c 4
 134.76953125 -12 52.615234375 40.615234375 52.615234375 140.30859375 c 4
 52.615234375 216.000976562 100.615234375 302.770507812 184.616210938 364.616210938 c 4
 300.923828125 450.462890625 470.770507812 452.309570312 470.770507812 452.309570312 c 5
 470.770507812 579.694335938 l 6
 470.770507812 646.15625 452.309570312 723.694335938 328.616210938 723.694335938 c 4
 184.616210938 723.694335938 164.30859375 660.924804688 164.30859375 660.924804688 c 5
 173.07421875 624.107421875 182.76953125 593.2421875 182.76953125 571.38671875 c 4
 182.76953125 539.079101562 134.76953125 516.924804688 118.154296875 516.924804688 c 4
 77.5390625 516.924804688 72 566.771484375 72 590.771484375 c 4
EndSplineSet
EndChar

StartChar: h
Encoding: 104 104 9
Width: 950
VWidth: 0
Flags: HMW
LayerCount: 3
Fore
SplineSet
599 809 m 0
 792 809 795 642 795 480 c 2
 795 124 l 2
 795 57 804 67 915 65 c 1
 915 0 l 1
 522 0 l 1
 520 65 l 1
 625 67 651 60 651 122 c 2
 651 539 l 2
 651 660 574 695 512 695 c 0
 408 695 296 595 296 595 c 1
 296 113 l 2
 296 56 335 71 439 65 c 1
 437 0 l 1
 36 0 l 1
 35 65 l 1
 118 67 152 62 152 113 c 2
 152 1330 l 2
 152 1373 150 1391 117 1391 c 0
 99 1391 74 1386 35 1378 c 1
 35 1449 l 1
 98 1455 178 1467 296 1486 c 1
 296 658 l 1
 350 701 467 809 599 809 c 0
EndSplineSet
EndChar

StartChar: f
Encoding: 102 102 10
Width: 582
VWidth: 0
Flags: HMW
LayerCount: 3
Fore
SplineSet
184 704 m 1
 35 704 l 1
 59 802 l 1
 185 802 l 1
 185 1029 l 2
 185 1056 185 1082 187 1108 c 0
 200 1314 335 1503 555 1503 c 0
 624 1503 723 1482 723 1420 c 0
 723 1396 661 1290 613 1290 c 0
 572 1290 556 1410 481 1410 c 0
 337 1410 327 1151 327 1094 c 2
 327 802 l 1
 534 802 l 1
 534 704 l 1
 328 704 l 1
 328 128 l 2
 328 57 348 69 485 65 c 1
 483 0 l 1
 57 0 l 1
 55 65 l 1
 157 69 184 54 184 120 c 2
 184 704 l 1
EndSplineSet
EndChar

StartChar: e
Encoding: 101 101 11
Width: 826
VWidth: 0
Flags: HMW
LayerCount: 3
Fore
SplineSet
495 112 m 0
 656 112 735 209 769 209 c 0
 779 209 786 202 786 184 c 0
 786 146 635 -26 413 -26 c 0
 125 -26 40 218 40 375 c 0
 40 642 199 818 402 818 c 0
 626 818 741 626 741 555 c 0
 741 532 717 525 709 524 c 2
 194 462 l 1
 193 455 193 445 193 435 c 0
 193 229 323 112 495 112 c 0
551 580 m 1
 551 580 495 747 382 747 c 0
 301 747 221 671 199 535 c 1
 551 580 l 1
EndSplineSet
EndChar

StartChar: d
Encoding: 100 100 12
Width: 1033
VWidth: 0
Flags: HMW
LayerCount: 3
Fore
SplineSet
536 1359 m 1
 531 1423 l 1
 631 1442 657 1448 843 1498 c 1
 843 143 l 2
 843 78 845 56 869 56 c 0
 890 56 929 74 998 93 c 1
 998 37 l 1
 933 19 878 0 704 -54 c 1
 704 17 706 66 706 96 c 0
 706 112 706 123 704 130 c 1
 701 128 591 -24 399 -24 c 0
 200 -24 35 137 35 378 c 0
 35 624 239 809 436 809 c 0
 592 809 699 719 699 719 c 1
 699 1329 l 2
 699 1373 692 1387 671 1387 c 0
 657 1387 618 1378 536 1359 c 1
699 175 m 1
 699 614 l 1
 699 614 602 746 435 746 c 0
 295 746 184 622 184 450 c 0
 184 263 305 92 506 92 c 0
 629 92 699 175 699 175 c 1
EndSplineSet
EndChar

StartChar: c
Encoding: 99 99 13
Width: 765
VWidth: 0
Flags: HMW
LayerCount: 3
Fore
SplineSet
184 422 m 0
 184 173 358 97 483 97 c 0
 670 97 718 146 748 146 c 0
 761 146 765 134 765 126 c 0
 765 83 596 -26 425 -26 c 0
 117 -26 40 182 40 372 c 0
 40 593 169 822 416 822 c 0
 609 822 729 716 729 686 c 0
 729 642 620 624 604 624 c 0
 538 624 469 740 379 740 c 0
 223 740 184 535 184 422 c 0
EndSplineSet
EndChar

StartChar: b
Encoding: 98 98 14
Width: 1029
VWidth: 0
Flags: HMW
LayerCount: 3
Fore
SplineSet
330 689 m 1
 360 711 464 818 618 818 c 0
 875 818 994 632 994 435 c 0
 994 214 843 -19 571 -19 c 0
 430 -19 327 43 296 43 c 0
 266 43 233 -4 203 -4 c 0
 193 -4 180 8 180 44 c 0
 180 72 186 155 186 318 c 2
 186 1324 l 2
 186 1370 177 1382 158 1382 c 0
 146 1382 133 1379 40 1359 c 1
 35 1423 l 1
 132 1440 228 1459 330 1480 c 1
 330 689 l 1
845 360 m 0
 845 681 620 706 566 706 c 0
 415 706 330 630 330 630 c 1
 330 200 l 2
 330 101 449 55 549 55 c 0
 662 55 845 100 845 360 c 0
EndSplineSet
EndChar

StartChar: g
Encoding: 103 103 15
Width: 883
VWidth: 0
Flags: HMW
LayerCount: 3
Fore
SplineSet
710 -197 m 0
 710 -77 581 -47 453 -47 c 0
 286 -47 122 -162 122 -277 c 0
 122 -331 142 -443 379 -443 c 0
 577 -443 710 -306 710 -197 c 0
377 735 m 0
 273 735 220 628 220 517 c 0
 220 398 294 274 389 274 c 0
 494 274 541 396 541 502 c 0
 541 611 471 735 377 735 c 0
712 496 m 0
 712 346 578 211 377 211 c 0
 268 211 201 184 201 138 c 0
 201 87 267 87 333 87 c 2
 342 87 l 2
 384 87 431 89 481 89 c 0
 750 89 853 0 853 -142 c 0
 853 -335 632 -539 303 -539 c 0
 149 -539 -31 -469 -31 -313 c 0
 -31 -107 252 -42 253 -41 c 1
 253 -41 54 -17 54 85 c 0
 54 192 246 231 246 231 c 1
 246 231 52 288 52 510 c 0
 52 678 210 819 377 819 c 0
 549 819 543 736 676 736 c 0
 776 736 773 774 791 805 c 1
 835 805 l 1
 835 753 l 2
 835 656 830 643 752 643 c 2
 720 643 l 2
 678 643 664 643 664 636 c 0
 664 620 712 592 712 496 c 0
EndSplineSet
EndChar

StartChar: r
Encoding: 114 114 16
Width: 701
VWidth: 0
Flags: HMW
LayerCount: 3
Fore
SplineSet
166 722 m 0
 147 722 83 709 40 700 c 1
 35 764 l 1
 122 781 76 769 334 832 c 1
 334 600 l 1
 340 609 433 809 552 809 c 0
 637 809 666 757 666 757 c 1
 587 556 l 1
 554 568 l 1
 555 575 556 584 556 594 c 0
 556 626 535 641 506 641 c 0
 441 641 338 575 338 495 c 2
 338 150 l 2
 338 51 360 70 555 65 c 1
 555 0 l 1
 65 0 l 1
 65 65 l 1
 188 68 194 60 194 150 c 2
 194 650 l 2
 194 706 191 722 166 722 c 0
EndSplineSet
EndChar

StartChar: s
Encoding: 115 115 17
Width: 722
VWidth: 0
Flags: HMW
LayerCount: 3
Fore
SplineSet
363 -26 m 0
 268 -26 178 -1 163 -1 c 0
 149 -1 145 -12 145 -26 c 0
 145 -33 146 -40 147 -48 c 1
 86 -51 l 1
 50 288 l 1
 114 293 l 1
 135 122 l 1
 135 122 243 43 360 43 c 0
 441 43 479 106 479 160 c 0
 479 339 113 373 113 606 c 0
 113 708 217 812 359 812 c 0
 461 812 516 775 537 775 c 0
 554 775 554 793 555 835 c 1
 622 834 l 1
 621 525 l 1
 556 524 l 1
 553 669 l 1
 553 669 488 738 362 738 c 0
 304 738 244 695 244 640 c 0
 244 562 324 530 403 470 c 0
 518 384 630 335 630 205 c 0
 630 85 542 -26 363 -26 c 0
EndSplineSet
Layer: 2
SplineSet
630 205 m 0
 630 85 542 -26 363 -26 c 0
 277 -26 142 4 142 4 c 1
 147 -48 l 1
 86 -51 l 1
 50 288 l 1
 114 293 l 1
 135 122 l 1
 135 122 243 43 360 43 c 0
 441 43 479 106 479 160 c 0
 479 339 113 373 113 606 c 0
 113 708 217 812 359 812 c 0
 449 812 556 764 556 764 c 1
 555 835 l 1
 622 834 l 1
 621 525 l 1
 556 524 l 1
 553 669 l 1
 553 669 488 738 362 738 c 0
 304 738 244 695 244 640 c 0
 244 562 324 530 403 470 c 0
 518 384 630 335 630 205 c 0
EndSplineSet
EndChar

StartChar: o
Encoding: 111 111 18
Width: 915
VWidth: 0
Flags: HW
LayerCount: 3
Fore
SplineSet
444 822 m 0
 789 822 875 557 875 377 c 0
 875 147 711 -30 449 -30 c 0
 172 -30 40 193 40 400 c 0
 40 612 164 822 444 822 c 0
203 449 m 0
 203 260 307 50 475 50 c 0
 643 50 703 213 703 382 c 0
 703 629 573 751 426 751 c 0
 307 751 203 649 203 449 c 0
EndSplineSet
EndChar

StartChar: w
Encoding: 119 119 19
Width: 1616
VWidth: 0
Flags: HMW
LayerCount: 3
Fore
SplineSet
35 802 m 1
 465 802 l 1
 462 737 l 1
 402 737 l 2
 369 737 339 734 339 703 c 0
 339 684 350 660 360 636 c 2
 550 192 l 1
 767 666 l 1
 740 730 716 737 661 737 c 2
 586 737 l 1
 582 802 l 1
 1024 802 l 1
 1024 737 l 1
 945 737 916 734 916 706 c 0
 916 693 923 675 934 648 c 2
 1124 194 l 1
 1343 657 l 2
 1353 679 1360 696 1360 708 c 0
 1360 730 1337 737 1270 737 c 2
 1216 737 l 1
 1216 802 l 1
 1579 802 l 1
 1581 737 l 1
 1514 735 1472 737 1439 669 c 2
 1100 -35 l 1
 1055 -33 l 1
 806 577 l 1
 531 -36 l 1
 487 -35 l 1
 202 626 l 2
 156 733 168 736 35 737 c 1
 35 802 l 1
EndSplineSet
EndChar

StartChar: u
Encoding: 117 117 20
Width: 949
VWidth: 0
Flags: HW
LayerCount: 3
Fore
SplineSet
35 792 m 1
 101 798 184 805 286 823 c 1
 286 312 l 2
 286 192 303 97 457 97 c 0
 594 97 640 175 640 175 c 1
 640 673 l 2
 640 728 623 736 597 736 c 0
 569 736 510 728 507 725 c 1
 502 789 l 1
 592 796 672 805 784 823 c 1
 784 227 l 2
 784 75 791 66 822 66 c 0
 841 66 870 76 914 88 c 1
 914 23 l 1
 824 4 749 -18 659 -42 c 1
 656 5 654 52 646 103 c 1
 646 103 526 -30 386 -30 c 0
 181 -30 142 126 142 282 c 2
 142 687 l 2
 142 729 130 738 102 738 c 0
 85 738 64 735 35 732 c 1
 35 792 l 1
EndSplineSet
EndChar

StartChar: t
Encoding: 116 116 21
Width: 638
VWidth: 0
Flags: HW
LayerCount: 3
Fore
SplineSet
603 111 m 0
 603 55 464 -23 358 -23 c 0
 212 -23 158 76 158 196 c 2
 158 690 l 1
 59 690 l 2
 40 690 35 693 35 706 c 0
 35 720 104 790 151 844 c 0
 211 912 277 1006 290 1006 c 0
 299 1006 302 1000 302 992 c 2
 302 788 l 1
 578 788 l 1
 566 690 l 1
 302 690 l 1
 302 214 l 2
 302 120 373 92 439 92 c 0
 520 92 578 131 588 131 c 0
 601 131 603 118 603 111 c 0
EndSplineSet
EndChar

StartChar: y
Encoding: 121 121 22
Width: 971
VWidth: 0
Flags: HW
LayerCount: 3
Fore
SplineSet
40 802 m 1
 430 802 l 1
 427 737 l 1
 354 734 321 742 321 709 c 0
 321 690 334 661 345 636 c 2
 520 245 l 1
 649 536 l 2
 687 621 715 688 715 708 c 0
 715 740 673 735 596 737 c 1
 596 802 l 1
 931 802 l 1
 931 737 l 1
 882 737 l 2
 811 737 815 726 771 629 c 2
 459 -59 l 2
 248 -524 173 -531 102 -531 c 0
 50 -531 19 -490 19 -439 c 0
 19 -377 54 -352 98 -352 c 0
 108 -352 139 -356 156 -356 c 0
 197 -356 257 -285 382 -43 c 2
 444 76 l 1
 187 626 l 2
 137 732 150 737 43 737 c 1
 40 802 l 1
EndSplineSet
EndChar

StartChar: quoteright
Encoding: 8217 8217 23
Width: 497
VWidth: 0
Flags: HW
LayerCount: 3
Fore
SplineSet
142 977 m 0
 142 1027 268 1034 268 1161 c 0
 268 1263 164 1244 164 1277 c 0
 164 1282 167 1288 172 1296 c 2
 222 1368 l 2
 226 1374 241 1392 253 1392 c 0
 264 1392 282 1383 312 1364 c 0
 355 1337 390 1323 390 1233 c 0
 390 1062 226 958 166 958 c 0
 151 958 142 965 142 977 c 0
EndSplineSet
EndChar

StartChar: G
Encoding: 71 71 24
Width: 1584
VWidth: 0
Flags: HW
LayerCount: 3
Fore
SplineSet
838 1291 m 0
 442 1291 260 1005 260 708 c 0
 260 387 473 53 860 53 c 0
 1100 53 1215 166 1215 166 c 1
 1215 532 l 1
 970 532 l 1
 968 611 l 1
 1533 611 l 1
 1535 532 l 1
 1381 532 l 1
 1381 112 l 1
 1220 44 1078 -48 822 -48 c 0
 306 -48 76 273 76 611 c 0
 76 988 362 1388 855 1388 c 0
 1022 1388 1146 1346 1272 1294 c 1
 1272 1397 l 1
 1354 1397 l 1
 1368 950 l 1
 1288 948 l 1
 1274 1162 l 1
 1274 1162 1117 1291 838 1291 c 0
EndSplineSet
EndChar

StartChar: p
Encoding: 112 112 39
Width: 1013
VWidth: 0
Flags: HW
LayerCount: 3
Fore
SplineSet
561 -25 m 0
 417 -25 307 11 307 11 c 1
 307 -414 l 2
 307 -468 344 -463 499 -465 c 1
 498 -530 l 1
 26 -530 l 5
 24 -465 l 1
 149 -465 163 -461 163 -416 c 2
 163 654 l 2
 163 698 152 711 132 711 c 0
 113 711 82 699 38 691 c 1
 36 756 l 1
 112 771 200 795 307 823 c 1
 307 656 l 1
 307 656 456 806 612 806 c 0
 806 806 952 625 952 412 c 0
 952 162 796 -25 561 -25 c 0
555 42 m 0
 757 42 808 238 808 346 c 0
 808 534 680 686 521 686 c 0
 407 686 328 609 307 592 c 1
 307 112 l 1
 307 112 412 42 555 42 c 0
EndSplineSet
Layer: 2
SplineSet
561 -25 m 4
 417 -25 307 11 307 11 c 5
 307 -424 l 6
 307 -478 344 -473 499 -475 c 5
 498 -540 l 5
 26 -540 l 5
 24 -475 l 5
 149 -475 163 -471 163 -426 c 6
 163 654 l 6
 163 698 152 711 132 711 c 4
 113 711 82 699 38 691 c 5
 36 756 l 5
 112 771 200 795 307 823 c 5
 307 656 l 5
 307 656 456 806 612 806 c 4
 806 806 952 625 952 412 c 4
 952 162 796 -25 561 -25 c 4
555 42 m 4
 757 42 808 238 808 346 c 4
 808 534 680 686 521 686 c 4
 407 686 328 609 307 592 c 5
 307 112 l 5
 307 112 412 42 555 42 c 4
561 -42 m 0
 417 -42 307 -6 307 -6 c 1
 307 -441 l 2
 307 -495 344 -490 499 -492 c 1
 498 -557 l 1
 26 -557 l 1
 24 -492 l 1
 149 -492 163 -488 163 -443 c 2
 163 637 l 2
 163 681 152 694 132 694 c 0
 113 694 82 682 38 674 c 1
 36 739 l 1
 112 754 200 778 307 806 c 1
 307 639 l 1
 307 639 456 789 612 789 c 0
 806 789 952 608 952 395 c 0
 952 145 796 -42 561 -42 c 0
555 25 m 0
 757 25 808 221 808 329 c 0
 808 517 680 669 521 669 c 0
 407 669 328 592 307 575 c 1
 307 95 l 1
 307 95 412 25 555 25 c 0
EndSplineSet
EndChar

StartChar: q
Encoding: 113 113 40
Width: 1020
VWidth: 0
Flags: HW
LayerCount: 3
Fore
SplineSet
416 -14 m 0
 179 -14 53 177 53 376 c 0
 53 652 284 818 504 818 c 0
 647 818 758 744 780 744 c 0
 823 744 827 812 827 812 c 1
 869 811 l 1
 863 680 850 578 850 270 c 2
 850 -380 l 2
 850 -470 852 -463 1000 -465 c 1
 1000 -530 l 1
 482 -530 l 1
 477 -465 l 1
 625 -458 706 -482 706 -395 c 2
 706 119 l 1
 625 60 542 -14 416 -14 c 0
507 110 m 0
 633 110 696 211 706 221 c 1
 706 666 l 1
 706 666 600 742 488 742 c 0
 279 742 194 568 194 455 c 0
 194 270 351 110 507 110 c 0
EndSplineSet
EndChar

StartChar: v
Encoding: 118 118 41
Width: 965
VWidth: 0
Flags: HW
LayerCount: 3
Fore
SplineSet
521 -36 m 1
 492 -35 l 1
 202 626 l 2
 155 733 150 737 70 737 c 1
 70 802 l 1
 438 802 l 1
 437 737 l 1
 373 735 338 742 338 709 c 0
 338 694 345 672 360 636 c 2
 542 203 l 1
 668 507 758 657 758 699 c 0
 758 735 746 737 661 737 c 1
 662 802 l 1
 944 802 l 1
 944 737 l 1
 860 730 870 781 616 186 c 2
 521 -36 l 1
EndSplineSet
EndChar

StartChar: x
Encoding: 120 120 42
Width: 392
VWidth: 0
Flags: HW
LayerCount: 3
Fore
SplineSet
96 660 m 0
 96 715 141 760 196 760 c 0
 251 760 296 715 296 660 c 0
 296 605 251 560 196 560 c 0
 141 560 96 605 96 660 c 0
EndSplineSet
EndChar

StartChar: z
Encoding: 122 122 43
Width: 863
VWidth: 0
Flags: HWO
LayerCount: 3
Fore
SplineSet
58 542 m 25
 92 834 l 25
 143 834 l 17
 144 798 140 795 187 795 c 2
 738 795 l 2
 793 795 809 792 809 781 c 0
 809 767 777 741 731 690 c 2
 214 126 l 1
 651 126 l 2
 722 126 729 132 743 310 c 9
 811 310 l 17
 806 236 797 142 788 0 c 1
 87 0 l 2
 51 0 29 0 29 21 c 0
 29 39 56 65 85 96 c 2
 616 669 l 1
 198 669 l 2
 128 669 128 668 112 540 c 9
 58 542 l 25
EndSplineSet
EndChar

